<?xml version="1.0" encoding="UTF-8" standalone="no"?>
<!-- Created with Inkscape (http://www.inkscape.org/) -->

<svg
   xmlns:dc="http://purl.org/dc/elements/1.1/"
   xmlns:cc="http://creativecommons.org/ns#"
   xmlns:rdf="http://www.w3.org/1999/02/22-rdf-syntax-ns#"
   xmlns:svg="http://www.w3.org/2000/svg"
   xmlns="http://www.w3.org/2000/svg"
   xmlns:sodipodi="http://sodipodi.sourceforge.net/DTD/sodipodi-0.dtd"
   xmlns:inkscape="http://www.inkscape.org/namespaces/inkscape"
   width="744.09448819"
   height="1052.3622047"
   id="svg7899"
   version="1.1"
   inkscape:version="0.48.4 r9939"
   sodipodi:docname="QR.svg">
  <defs
     id="defs7901">
    <marker
       inkscape:stockid="Arrow2Mend"
       orient="auto"
       refY="0.0"
       refX="0.0"
       id="Arrow2Mend"
       style="overflow:visible;">
      <path
         id="path3854"
         style="fill-rule:evenodd;stroke-width:0.62500000;stroke-linejoin:round;"
         d="M 8.7185878,4.0337352 L -2.2072895,0.016013256 L 8.7185884,-4.0017078 C 6.9730900,-1.6296469 6.9831476,1.6157441 8.7185878,4.0337352 z "
         transform="scale(0.6) rotate(180) translate(0,0)" />
    </marker>
  </defs>
  <sodipodi:namedview
     id="base"
     pagecolor="#ffffff"
     bordercolor="#666666"
     borderopacity="1.0"
     inkscape:pageopacity="0.0"
     inkscape:pageshadow="2"
     inkscape:zoom="2.6687159"
     inkscape:cx="658.84999"
     inkscape:cy="670.37562"
     inkscape:document-units="px"
     inkscape:current-layer="layer1"
     showgrid="true"
     inkscape:window-width="2560"
     inkscape:window-height="1393"
     inkscape:window-x="0"
     inkscape:window-y="0"
     inkscape:window-maximized="1">
    <inkscape:grid
       type="xygrid"
       id="grid7907" />
  </sodipodi:namedview>
  <metadata
     id="metadata7904">
    <rdf:RDF>
      <cc:Work
         rdf:about="">
        <dc:format>image/svg+xml</dc:format>
        <dc:type
           rdf:resource="http://purl.org/dc/dcmitype/StillImage" />
        <dc:title />
      </cc:Work>
    </rdf:RDF>
  </metadata>
  <g
     inkscape:label="Layer 1"
     inkscape:groupmode="layer"
     id="layer1">
    <path
       inkscape:connector-curvature="0"
       id="path8881"
       d="m 170.07874,333.07084 0,17.71654"
       style="fill:none;stroke:#000000;stroke-width:2;stroke-linecap:butt;stroke-linejoin:miter;stroke-miterlimit:4;stroke-opacity:1;stroke-dasharray:none;marker-end:url(#Arrow2Mend)"
       sodipodi:nodetypes="cc" />
    <path
       style="fill:none;stroke:#000000;stroke-width:2;stroke-linecap:butt;stroke-linejoin:miter;stroke-miterlimit:4;stroke-opacity:1;stroke-dasharray:none;marker-end:url(#Arrow2Mend)"
       d="m 130,486.36218 140,0"
       id="path8865"
       inkscape:connector-curvature="0" />
    <path
       sodipodi:nodetypes="cc"
       style="fill:none;stroke:#000000;stroke-width:2;stroke-linecap:butt;stroke-linejoin:miter;stroke-miterlimit:4;stroke-opacity:1;stroke-dasharray:none;marker-end:url(#Arrow2Mend)"
       d="m 130,492.36218 80,0"
       id="path8861"
       inkscape:connector-curvature="0" />
    <path
       inkscape:connector-curvature="0"
       id="path8863"
       d="m 130,498.36218 20,0"
       style="fill:none;stroke:#000000;stroke-width:2;stroke-linecap:butt;stroke-linejoin:miter;stroke-miterlimit:4;stroke-opacity:1;stroke-dasharray:none;marker-end:url(#Arrow2Mend)"
       sodipodi:nodetypes="cc" />
    <path
       inkscape:connector-curvature="0"
       id="path8867"
       d="m 130,492.36218 80,0"
       style="fill:none;stroke:#000000;stroke-width:2;stroke-linecap:butt;stroke-linejoin:miter;stroke-miterlimit:4;stroke-opacity:1;stroke-dasharray:none;marker-end:url(#Arrow2Mend)"
       sodipodi:nodetypes="cc" />
    <path
       sodipodi:nodetypes="cc"
       style="fill:none;stroke:#000000;stroke-width:2;stroke-linecap:butt;stroke-linejoin:miter;stroke-miterlimit:4;stroke-opacity:1;stroke-dasharray:none;marker-end:url(#Arrow2Mend)"
       d="m 130,498.36218 20,0"
       id="path8869"
       inkscape:connector-curvature="0" />
    <path
       style="fill:none;stroke:#000000;stroke-width:2;stroke-linecap:butt;stroke-linejoin:miter;stroke-miterlimit:4;stroke-opacity:1;stroke-dasharray:none;marker-end:url(#Arrow2Mend)"
       d="m 130,426.36218 140,0"
       id="path8853"
       inkscape:connector-curvature="0" />
    <path
       inkscape:connector-curvature="0"
       id="path8855"
       d="m 130,432.36218 80,0"
       style="fill:none;stroke:#000000;stroke-width:2;stroke-linecap:butt;stroke-linejoin:miter;stroke-miterlimit:4;stroke-opacity:1;stroke-dasharray:none;marker-end:url(#Arrow2Mend)"
       sodipodi:nodetypes="cc" />
    <path
       sodipodi:nodetypes="cc"
       style="fill:none;stroke:#000000;stroke-width:2;stroke-linecap:butt;stroke-linejoin:miter;stroke-miterlimit:4;stroke-opacity:1;stroke-dasharray:none;marker-end:url(#Arrow2Mend)"
       d="m 130,438.36218 20,0"
       id="path8857"
       inkscape:connector-curvature="0" />
    <path
       inkscape:connector-curvature="0"
       id="path8847"
       d="m 130,366.36218 140,0"
       style="fill:none;stroke:#000000;stroke-width:2;stroke-linecap:butt;stroke-linejoin:miter;stroke-miterlimit:4;stroke-opacity:1;stroke-dasharray:none;marker-end:url(#Arrow2Mend)" />
    <path
       sodipodi:nodetypes="cc"
       style="fill:none;stroke:#000000;stroke-width:2;stroke-linecap:butt;stroke-linejoin:miter;stroke-miterlimit:4;stroke-opacity:1;stroke-dasharray:none;marker-end:url(#Arrow2Mend)"
       d="m 130,372.36218 80,0"
       id="path8849"
       inkscape:connector-curvature="0" />
    <path
       inkscape:connector-curvature="0"
       id="path8851"
       d="m 130,378.36218 20,0"
       style="fill:none;stroke:#000000;stroke-width:2;stroke-linecap:butt;stroke-linejoin:miter;stroke-miterlimit:4;stroke-opacity:1;stroke-dasharray:none;marker-end:url(#Arrow2Mend)"
       sodipodi:nodetypes="cc" />
    <path
       style="fill:none;stroke:#000000;stroke-width:2;stroke-linecap:butt;stroke-linejoin:miter;stroke-miterlimit:4;stroke-opacity:1;stroke-dasharray:none;marker-end:url(#Arrow2Mend)"
       d="m 130,306.36218 140,0"
       id="path8653"
       inkscape:connector-curvature="0" />
    <path
       inkscape:connector-curvature="0"
       id="path8837"
       d="m 130,312.36218 80,0"
       style="fill:none;stroke:#000000;stroke-width:2;stroke-linecap:butt;stroke-linejoin:miter;stroke-miterlimit:4;stroke-opacity:1;stroke-dasharray:none;marker-end:url(#Arrow2Mend)"
       sodipodi:nodetypes="cc" />
    <path
       sodipodi:nodetypes="cc"
       style="fill:none;stroke:#000000;stroke-width:2;stroke-linecap:butt;stroke-linejoin:miter;stroke-miterlimit:4;stroke-opacity:1;stroke-dasharray:none;marker-end:url(#Arrow2Mend)"
       d="m 130,318.36218 20,0"
       id="path8839"
       inkscape:connector-curvature="0" />
    <path
       sodipodi:type="arc"
       style="fill:#ff2200;fill-opacity:1;stroke:#000000;stroke-width:2;stroke-linejoin:miter;stroke-miterlimit:4;stroke-opacity:1;stroke-dasharray:none;stroke-dashoffset:0"
       id="path7909"
       sodipodi:cx="110"
       sodipodi:cy="372.36218"
       sodipodi:rx="20"
       sodipodi:ry="20"
       d="m 130,372.36218 a 20,20 0 1 1 -40,0 20,20 0 1 1 40,0 z"
       transform="translate(0,-60)" />
    <path
       sodipodi:type="arc"
       style="fill:#82ff00;fill-opacity:1;stroke:#000000;stroke-width:2;stroke-linejoin:miter;stroke-miterlimit:4;stroke-opacity:1;stroke-dasharray:none;stroke-dashoffset:0"
       id="path8421"
       sodipodi:cx="110"
       sodipodi:cy="372.36218"
       sodipodi:rx="20"
       sodipodi:ry="20"
       d="m 130,372.36218 a 20,20 0 1 1 -40,0 20,20 0 1 1 40,0 z"
       transform="translate(60,-60)" />
    <path
       transform="translate(120,-60)"
       d="m 130,372.36218 a 20,20 0 1 1 -40,0 20,20 0 1 1 40,0 z"
       sodipodi:ry="20"
       sodipodi:rx="20"
       sodipodi:cy="372.36218"
       sodipodi:cx="110"
       id="path8423"
       style="fill:#82ff00;fill-opacity:1;stroke:#000000;stroke-width:2;stroke-linejoin:miter;stroke-miterlimit:4;stroke-opacity:1;stroke-dasharray:none;stroke-dashoffset:0"
       sodipodi:type="arc" />
    <path
       sodipodi:type="arc"
       style="fill:#82ff00;fill-opacity:1;stroke:#000000;stroke-width:2;stroke-linejoin:miter;stroke-miterlimit:4;stroke-opacity:1;stroke-dasharray:none;stroke-dashoffset:0"
       id="path8425"
       sodipodi:cx="110"
       sodipodi:cy="372.36218"
       sodipodi:rx="20"
       sodipodi:ry="20"
       d="m 130,372.36218 a 20,20 0 1 1 -40,0 20,20 0 1 1 40,0 z"
       transform="translate(180,-60)" />
    <path
       d="m 130,372.36218 a 20,20 0 1 1 -40,0 20,20 0 1 1 40,0 z"
       sodipodi:ry="20"
       sodipodi:rx="20"
       sodipodi:cy="372.36218"
       sodipodi:cx="110"
       id="path8427"
       style="fill:#00b8ff;fill-opacity:1;stroke:#000000;stroke-width:2;stroke-linejoin:miter;stroke-miterlimit:4;stroke-opacity:1;stroke-dasharray:none;stroke-dashoffset:0"
       sodipodi:type="arc" />
    <path
       transform="translate(60,0)"
       d="m 130,372.36218 a 20,20 0 1 1 -40,0 20,20 0 1 1 40,0 z"
       sodipodi:ry="20"
       sodipodi:rx="20"
       sodipodi:cy="372.36218"
       sodipodi:cx="110"
       id="path8429"
       style="fill:#ffed00;fill-opacity:1;stroke:#000000;stroke-width:2;stroke-linejoin:miter;stroke-miterlimit:4;stroke-opacity:1;stroke-dasharray:none;stroke-dashoffset:0"
       sodipodi:type="arc" />
    <path
       sodipodi:type="arc"
       style="fill:#ffed00;fill-opacity:1;stroke:#000000;stroke-width:2;stroke-linejoin:miter;stroke-miterlimit:4;stroke-opacity:1;stroke-dasharray:none;stroke-dashoffset:0"
       id="path8431"
       sodipodi:cx="110"
       sodipodi:cy="372.36218"
       sodipodi:rx="20"
       sodipodi:ry="20"
       d="m 130,372.36218 a 20,20 0 1 1 -40,0 20,20 0 1 1 40,0 z"
       transform="translate(120,0)" />
    <path
       transform="translate(180,0)"
       d="m 130,372.36218 a 20,20 0 1 1 -40,0 20,20 0 1 1 40,0 z"
       sodipodi:ry="20"
       sodipodi:rx="20"
       sodipodi:cy="372.36218"
       sodipodi:cx="110"
       id="path8433"
       style="fill:#ffed00;fill-opacity:1;stroke:#000000;stroke-width:2;stroke-linejoin:miter;stroke-miterlimit:4;stroke-opacity:1;stroke-dasharray:none;stroke-dashoffset:0"
       sodipodi:type="arc" />
    <path
       d="m 130,372.36218 a 20,20 0 1 1 -40,0 20,20 0 1 1 40,0 z"
       sodipodi:ry="20"
       sodipodi:rx="20"
       sodipodi:cy="372.36218"
       sodipodi:cx="110"
       id="path8435"
       style="fill:#00b8ff;fill-opacity:1;stroke:#000000;stroke-width:2;stroke-linejoin:miter;stroke-miterlimit:4;stroke-opacity:1;stroke-dasharray:none;stroke-dashoffset:0"
       sodipodi:type="arc"
       transform="translate(0,60)" />
    <path
       transform="translate(60,60)"
       d="m 130,372.36218 a 20,20 0 1 1 -40,0 20,20 0 1 1 40,0 z"
       sodipodi:ry="20"
       sodipodi:rx="20"
       sodipodi:cy="372.36218"
       sodipodi:cx="110"
       id="path8437"
       style="fill:#ffed00;fill-opacity:1;stroke:#000000;stroke-width:2;stroke-linejoin:miter;stroke-miterlimit:4;stroke-opacity:1;stroke-dasharray:none;stroke-dashoffset:0"
       sodipodi:type="arc" />
    <path
       sodipodi:type="arc"
       style="fill:#ffed00;fill-opacity:1;stroke:#000000;stroke-width:2;stroke-linejoin:miter;stroke-miterlimit:4;stroke-opacity:1;stroke-dasharray:none;stroke-dashoffset:0"
       id="path8439"
       sodipodi:cx="110"
       sodipodi:cy="372.36218"
       sodipodi:rx="20"
       sodipodi:ry="20"
       d="m 130,372.36218 a 20,20 0 1 1 -40,0 20,20 0 1 1 40,0 z"
       transform="translate(120,60)" />
    <path
       transform="translate(180,60)"
       d="m 130,372.36218 a 20,20 0 1 1 -40,0 20,20 0 1 1 40,0 z"
       sodipodi:ry="20"
       sodipodi:rx="20"
       sodipodi:cy="372.36218"
       sodipodi:cx="110"
       id="path8441"
       style="fill:#ffed00;fill-opacity:1;stroke:#000000;stroke-width:2;stroke-linejoin:miter;stroke-miterlimit:4;stroke-opacity:1;stroke-dasharray:none;stroke-dashoffset:0"
       sodipodi:type="arc" />
    <path
       transform="translate(0,120)"
       sodipodi:type="arc"
       style="fill:#00b8ff;fill-opacity:1;stroke:#000000;stroke-width:2;stroke-linejoin:miter;stroke-miterlimit:4;stroke-opacity:1;stroke-dasharray:none;stroke-dashoffset:0"
       id="path8443"
       sodipodi:cx="110"
       sodipodi:cy="372.36218"
       sodipodi:rx="20"
       sodipodi:ry="20"
       d="m 130,372.36218 a 20,20 0 1 1 -40,0 20,20 0 1 1 40,0 z" />
    <path
       sodipodi:type="arc"
       style="fill:#ffed00;fill-opacity:1;stroke:#000000;stroke-width:2;stroke-linejoin:miter;stroke-miterlimit:4;stroke-opacity:1;stroke-dasharray:none;stroke-dashoffset:0"
       id="path8445"
       sodipodi:cx="110"
       sodipodi:cy="372.36218"
       sodipodi:rx="20"
       sodipodi:ry="20"
       d="m 130,372.36218 a 20,20 0 1 1 -40,0 20,20 0 1 1 40,0 z"
       transform="translate(60,120)" />
    <path
       transform="translate(120,120)"
       d="m 130,372.36218 a 20,20 0 1 1 -40,0 20,20 0 1 1 40,0 z"
       sodipodi:ry="20"
       sodipodi:rx="20"
       sodipodi:cy="372.36218"
       sodipodi:cx="110"
       id="path8447"
       style="fill:#ffed00;fill-opacity:1;stroke:#000000;stroke-width:2;stroke-linejoin:miter;stroke-miterlimit:4;stroke-opacity:1;stroke-dasharray:none;stroke-dashoffset:0"
       sodipodi:type="arc" />
    <path
       sodipodi:type="arc"
       style="fill:#ffed00;fill-opacity:1;stroke:#000000;stroke-width:2;stroke-linejoin:miter;stroke-miterlimit:4;stroke-opacity:1;stroke-dasharray:none;stroke-dashoffset:0"
       id="path8449"
       sodipodi:cx="110"
       sodipodi:cy="372.36218"
       sodipodi:rx="20"
       sodipodi:ry="20"
       d="m 130,372.36218 a 20,20 0 1 1 -40,0 20,20 0 1 1 40,0 z"
       transform="translate(180,120)" />
    <path
       inkscape:connector-curvature="0"
       id="path8841"
       d="m 110,332.36218 0,20"
       style="fill:none;stroke:#000000;stroke-width:2;stroke-linecap:butt;stroke-linejoin:miter;stroke-miterlimit:4;stroke-opacity:1;stroke-dasharray:none;marker-end:url(#Arrow2Mend)"
       sodipodi:nodetypes="cc" />
    <path
       sodipodi:nodetypes="cc"
       style="fill:none;stroke:#000000;stroke-width:2;stroke-linecap:butt;stroke-linejoin:miter;stroke-miterlimit:4;stroke-opacity:1;stroke-dasharray:none;marker-end:url(#Arrow2Mend)"
       d="m 110,392.36218 0,20"
       id="path8843"
       inkscape:connector-curvature="0" />
    <path
       inkscape:connector-curvature="0"
       id="path8845"
       d="m 110,452.36218 0,20"
       style="fill:none;stroke:#000000;stroke-width:2;stroke-linecap:butt;stroke-linejoin:miter;stroke-miterlimit:4;stroke-opacity:1;stroke-dasharray:none;marker-end:url(#Arrow2Mend)"
       sodipodi:nodetypes="cc" />
    <path
       sodipodi:nodetypes="cc"
       style="fill:none;stroke:#000000;stroke-width:2;stroke-linecap:butt;stroke-linejoin:miter;stroke-miterlimit:4;stroke-opacity:1;stroke-dasharray:none;marker-end:url(#Arrow2Mend)"
       d="m 470,492.36218 80,0"
       id="path8940"
       inkscape:connector-curvature="0" />
    <path
       inkscape:connector-curvature="0"
       id="path8942"
       d="m 470,498.36218 20,0"
       style="fill:none;stroke:#000000;stroke-width:2;stroke-linecap:butt;stroke-linejoin:miter;stroke-miterlimit:4;stroke-opacity:1;stroke-dasharray:none;marker-end:url(#Arrow2Mend)"
       sodipodi:nodetypes="cc" />
    <path
       inkscape:connector-curvature="0"
       id="path8946"
       d="m 470,432.36218 80,0"
       style="fill:none;stroke:#000000;stroke-width:2;stroke-linecap:butt;stroke-linejoin:miter;stroke-miterlimit:4;stroke-opacity:1;stroke-dasharray:none;marker-end:url(#Arrow2Mend)"
       sodipodi:nodetypes="cc" />
    <path
       sodipodi:nodetypes="cc"
       style="fill:none;stroke:#000000;stroke-width:2;stroke-linecap:butt;stroke-linejoin:miter;stroke-miterlimit:4;stroke-opacity:1;stroke-dasharray:none;marker-end:url(#Arrow2Mend)"
       d="m 470,438.36218 20,0"
       id="path8948"
       inkscape:connector-curvature="0" />
    <path
       sodipodi:nodetypes="cc"
       style="fill:none;stroke:#000000;stroke-width:2;stroke-linecap:butt;stroke-linejoin:miter;stroke-miterlimit:4;stroke-opacity:1;stroke-dasharray:none;marker-end:url(#Arrow2Mend)"
       d="m 470,372.36218 80,0"
       id="path8952"
       inkscape:connector-curvature="0" />
    <path
       inkscape:connector-curvature="0"
       id="path8954"
       d="m 470,378.36218 20,0"
       style="fill:none;stroke:#000000;stroke-width:2;stroke-linecap:butt;stroke-linejoin:miter;stroke-miterlimit:4;stroke-opacity:1;stroke-dasharray:none;marker-end:url(#Arrow2Mend)"
       sodipodi:nodetypes="cc" />
    <path
       d="m 130,372.36218 a 20,20 0 1 1 -40,0 20,20 0 1 1 40,0 z"
       sodipodi:ry="20"
       sodipodi:rx="20"
       sodipodi:cy="372.36218"
       sodipodi:cx="110"
       id="path8956"
       style="fill:#ff2200;fill-opacity:1;stroke:#000000;stroke-width:2;stroke-linejoin:miter;stroke-miterlimit:4;stroke-opacity:1;stroke-dasharray:none;stroke-dashoffset:0"
       sodipodi:type="arc"
       transform="translate(340,0)" />
    <path
       transform="translate(400,0)"
       d="m 130,372.36218 a 20,20 0 1 1 -40,0 20,20 0 1 1 40,0 z"
       sodipodi:ry="20"
       sodipodi:rx="20"
       sodipodi:cy="372.36218"
       sodipodi:cx="110"
       id="path8958"
       style="fill:#82ff00;fill-opacity:1;stroke:#000000;stroke-width:2;stroke-linejoin:miter;stroke-miterlimit:4;stroke-opacity:1;stroke-dasharray:none;stroke-dashoffset:0"
       sodipodi:type="arc" />
    <path
       sodipodi:type="arc"
       style="fill:#82ff00;fill-opacity:1;stroke:#000000;stroke-width:2;stroke-linejoin:miter;stroke-miterlimit:4;stroke-opacity:1;stroke-dasharray:none;stroke-dashoffset:0"
       id="path8960"
       sodipodi:cx="110"
       sodipodi:cy="372.36218"
       sodipodi:rx="20"
       sodipodi:ry="20"
       d="m 130,372.36218 a 20,20 0 1 1 -40,0 20,20 0 1 1 40,0 z"
       transform="translate(460,0)" />
    <path
       sodipodi:type="arc"
       style="fill:#00b8ff;fill-opacity:1;stroke:#000000;stroke-width:2;stroke-linejoin:miter;stroke-miterlimit:4;stroke-opacity:1;stroke-dasharray:none;stroke-dashoffset:0"
       id="path8964"
       sodipodi:cx="110"
       sodipodi:cy="372.36218"
       sodipodi:rx="20"
       sodipodi:ry="20"
       d="m 130,372.36218 a 20,20 0 1 1 -40,0 20,20 0 1 1 40,0 z"
       transform="translate(340,60)" />
    <path
       sodipodi:type="arc"
       style="fill:#ffed00;fill-opacity:1;stroke:#000000;stroke-width:2;stroke-linejoin:miter;stroke-miterlimit:4;stroke-opacity:1;stroke-dasharray:none;stroke-dashoffset:0"
       id="path8966"
       sodipodi:cx="110"
       sodipodi:cy="372.36218"
       sodipodi:rx="20"
       sodipodi:ry="20"
       d="m 130,372.36218 a 20,20 0 1 1 -40,0 20,20 0 1 1 40,0 z"
       transform="translate(400,60)" />
    <path
       transform="translate(460,60)"
       d="m 130,372.36218 a 20,20 0 1 1 -40,0 20,20 0 1 1 40,0 z"
       sodipodi:ry="20"
       sodipodi:rx="20"
       sodipodi:cy="372.36218"
       sodipodi:cx="110"
       id="path8968"
       style="fill:#ffed00;fill-opacity:1;stroke:#000000;stroke-width:2;stroke-linejoin:miter;stroke-miterlimit:4;stroke-opacity:1;stroke-dasharray:none;stroke-dashoffset:0"
       sodipodi:type="arc" />
    <path
       transform="translate(340,120)"
       sodipodi:type="arc"
       style="fill:#00b8ff;fill-opacity:1;stroke:#000000;stroke-width:2;stroke-linejoin:miter;stroke-miterlimit:4;stroke-opacity:1;stroke-dasharray:none;stroke-dashoffset:0"
       id="path8972"
       sodipodi:cx="110"
       sodipodi:cy="372.36218"
       sodipodi:rx="20"
       sodipodi:ry="20"
       d="m 130,372.36218 a 20,20 0 1 1 -40,0 20,20 0 1 1 40,0 z" />
    <path
       sodipodi:type="arc"
       style="fill:#ffed00;fill-opacity:1;stroke:#000000;stroke-width:2;stroke-linejoin:miter;stroke-miterlimit:4;stroke-opacity:1;stroke-dasharray:none;stroke-dashoffset:0"
       id="path8974"
       sodipodi:cx="110"
       sodipodi:cy="372.36218"
       sodipodi:rx="20"
       sodipodi:ry="20"
       d="m 130,372.36218 a 20,20 0 1 1 -40,0 20,20 0 1 1 40,0 z"
       transform="translate(400,120)" />
    <path
       transform="translate(460,120)"
       d="m 130,372.36218 a 20,20 0 1 1 -40,0 20,20 0 1 1 40,0 z"
       sodipodi:ry="20"
       sodipodi:rx="20"
       sodipodi:cy="372.36218"
       sodipodi:cx="110"
       id="path8976"
       style="fill:#ffed00;fill-opacity:1;stroke:#000000;stroke-width:2;stroke-linejoin:miter;stroke-miterlimit:4;stroke-opacity:1;stroke-dasharray:none;stroke-dashoffset:0"
       sodipodi:type="arc" />
    <path
       sodipodi:nodetypes="cc"
       style="fill:none;stroke:#000000;stroke-width:2;stroke-linecap:butt;stroke-linejoin:miter;stroke-miterlimit:4;stroke-opacity:1;stroke-dasharray:none;marker-end:url(#Arrow2Mend)"
       d="m 450,392.36218 0,20"
       id="path8988"
       inkscape:connector-curvature="0" />
    <path
       inkscape:connector-curvature="0"
       id="path8990"
       d="m 450,452.36218 0,20"
       style="fill:none;stroke:#000000;stroke-width:2;stroke-linecap:butt;stroke-linejoin:miter;stroke-miterlimit:4;stroke-opacity:1;stroke-dasharray:none;marker-end:url(#Arrow2Mend)"
       sodipodi:nodetypes="cc" />
    <path
       inkscape:connector-curvature="0"
       id="path9006"
       d="m 869.88411,452.30806 0,20"
       style="fill:none;stroke:#000000;stroke-width:2;stroke-linecap:butt;stroke-linejoin:miter;stroke-miterlimit:4;stroke-opacity:1;stroke-dasharray:none;marker-end:url(#Arrow2Mend)"
       sodipodi:nodetypes="cc" />
    <path
       inkscape:connector-curvature="0"
       id="path9014"
       d="m 830,498.36218 20,0"
       style="fill:none;stroke:#000000;stroke-width:2;stroke-linecap:butt;stroke-linejoin:miter;stroke-miterlimit:4;stroke-opacity:1;stroke-dasharray:none;marker-end:url(#Arrow2Mend)"
       sodipodi:nodetypes="cc" />
    <path
       sodipodi:nodetypes="cc"
       style="fill:none;stroke:#000000;stroke-width:2;stroke-linecap:butt;stroke-linejoin:miter;stroke-miterlimit:4;stroke-opacity:1;stroke-dasharray:none;marker-end:url(#Arrow2Mend)"
       d="m 830,438.36218 20,0"
       id="path9018"
       inkscape:connector-curvature="0" />
    <path
       transform="translate(700,60)"
       sodipodi:type="arc"
       style="fill:#ff2200;fill-opacity:1;stroke:#000000;stroke-width:2;stroke-linejoin:miter;stroke-miterlimit:4;stroke-opacity:1;stroke-dasharray:none;stroke-dashoffset:0"
       id="path9020"
       sodipodi:cx="110"
       sodipodi:cy="372.36218"
       sodipodi:rx="20"
       sodipodi:ry="20"
       d="m 130,372.36218 a 20,20 0 1 1 -40,0 20,20 0 1 1 40,0 z" />
    <path
       sodipodi:type="arc"
       style="fill:#82ff00;fill-opacity:1;stroke:#000000;stroke-width:2;stroke-linejoin:miter;stroke-miterlimit:4;stroke-opacity:1;stroke-dasharray:none;stroke-dashoffset:0"
       id="path9022"
       sodipodi:cx="110"
       sodipodi:cy="372.36218"
       sodipodi:rx="20"
       sodipodi:ry="20"
       d="m 130,372.36218 a 20,20 0 1 1 -40,0 20,20 0 1 1 40,0 z"
       transform="translate(760,60)" />
    <path
       d="m 130,372.36218 a 20,20 0 1 1 -40,0 20,20 0 1 1 40,0 z"
       sodipodi:ry="20"
       sodipodi:rx="20"
       sodipodi:cy="372.36218"
       sodipodi:cx="110"
       id="path9026"
       style="fill:#00b8ff;fill-opacity:1;stroke:#000000;stroke-width:2;stroke-linejoin:miter;stroke-miterlimit:4;stroke-opacity:1;stroke-dasharray:none;stroke-dashoffset:0"
       sodipodi:type="arc"
       transform="translate(700,120)" />
    <path
       transform="translate(760,120)"
       d="m 130,372.36218 a 20,20 0 1 1 -40,0 20,20 0 1 1 40,0 z"
       sodipodi:ry="20"
       sodipodi:rx="20"
       sodipodi:cy="372.36218"
       sodipodi:cx="110"
       id="path9028"
       style="fill:#ffed00;fill-opacity:1;stroke:#000000;stroke-width:2;stroke-linejoin:miter;stroke-miterlimit:4;stroke-opacity:1;stroke-dasharray:none;stroke-dashoffset:0"
       sodipodi:type="arc" />
    <path
       inkscape:connector-curvature="0"
       id="path9038"
       d="m 810,452.36218 0,20"
       style="fill:none;stroke:#000000;stroke-width:2;stroke-linecap:butt;stroke-linejoin:miter;stroke-miterlimit:4;stroke-opacity:1;stroke-dasharray:none;marker-end:url(#Arrow2Mend)"
       sodipodi:nodetypes="cc" />
    <path
       d="m 130,372.36218 a 20,20 0 1 1 -40,0 20,20 0 1 1 40,0 z"
       sodipodi:ry="20"
       sodipodi:rx="20"
       sodipodi:cy="372.36218"
       sodipodi:cx="110"
       id="path9042"
       style="fill:#ff2200;fill-opacity:1;stroke:#000000;stroke-width:2;stroke-linejoin:miter;stroke-miterlimit:4;stroke-opacity:1;stroke-dasharray:none;stroke-dashoffset:0"
       sodipodi:type="arc"
       transform="translate(1060,120)" />
    <path
       transform="translate(280,-60)"
       d="m 130,372.36218 a 20,20 0 1 1 -40,0 20,20 0 1 1 40,0 z"
       sodipodi:ry="20"
       sodipodi:rx="20"
       sodipodi:cy="372.36218"
       sodipodi:cx="110"
       id="path9044"
       style="fill:none;stroke:#000000;stroke-width:2;stroke-linejoin:miter;stroke-miterlimit:4;stroke-opacity:1;stroke-dasharray:none;stroke-dashoffset:0"
       sodipodi:type="arc" />
    <path
       transform="translate(340,-60)"
       d="m 130,372.36218 a 20,20 0 1 1 -40,0 20,20 0 1 1 40,0 z"
       sodipodi:ry="20"
       sodipodi:rx="20"
       sodipodi:cy="372.36218"
       sodipodi:cx="110"
       id="path9046"
       style="fill:none;stroke:#000000;stroke-width:2;stroke-linejoin:miter;stroke-miterlimit:4;stroke-opacity:1;stroke-dasharray:none;stroke-dashoffset:0"
       sodipodi:type="arc" />
    <path
       sodipodi:type="arc"
       style="fill:none;stroke:#000000;stroke-width:2;stroke-linejoin:miter;stroke-miterlimit:4;stroke-opacity:1;stroke-dasharray:none;stroke-dashoffset:0"
       id="path9048"
       sodipodi:cx="110"
       sodipodi:cy="372.36218"
       sodipodi:rx="20"
       sodipodi:ry="20"
       d="m 130,372.36218 a 20,20 0 1 1 -40,0 20,20 0 1 1 40,0 z"
       transform="translate(400,-60)" />
    <path
       transform="translate(460,-60)"
       d="m 130,372.36218 a 20,20 0 1 1 -40,0 20,20 0 1 1 40,0 z"
       sodipodi:ry="20"
       sodipodi:rx="20"
       sodipodi:cy="372.36218"
       sodipodi:cx="110"
       id="path9050"
       style="fill:none;stroke:#000000;stroke-width:2;stroke-linejoin:miter;stroke-miterlimit:4;stroke-opacity:1;stroke-dasharray:none;stroke-dashoffset:0"
       sodipodi:type="arc" />
    <path
       sodipodi:type="arc"
       style="fill:none;stroke:#000000;stroke-width:2;stroke-linejoin:miter;stroke-miterlimit:4;stroke-opacity:1;stroke-dasharray:none;stroke-dashoffset:0"
       id="path9052"
       sodipodi:cx="110"
       sodipodi:cy="372.36218"
       sodipodi:rx="20"
       sodipodi:ry="20"
       d="m 130,372.36218 a 20,20 0 1 1 -40,0 20,20 0 1 1 40,0 z"
       transform="translate(280,0)" />
    <path
       transform="translate(280,60)"
       sodipodi:type="arc"
       style="fill:none;stroke:#000000;stroke-width:2;stroke-linejoin:miter;stroke-miterlimit:4;stroke-opacity:1;stroke-dasharray:none;stroke-dashoffset:0"
       id="path9054"
       sodipodi:cx="110"
       sodipodi:cy="372.36218"
       sodipodi:rx="20"
       sodipodi:ry="20"
       d="m 130,372.36218 a 20,20 0 1 1 -40,0 20,20 0 1 1 40,0 z" />
    <path
       d="m 130,372.36218 a 20,20 0 1 1 -40,0 20,20 0 1 1 40,0 z"
       sodipodi:ry="20"
       sodipodi:rx="20"
       sodipodi:cy="372.36218"
       sodipodi:cx="110"
       id="path9056"
       style="fill:none;stroke:#000000;stroke-width:2;stroke-linejoin:miter;stroke-miterlimit:4;stroke-opacity:1;stroke-dasharray:none;stroke-dashoffset:0"
       sodipodi:type="arc"
       transform="translate(280,120)" />
    <path
       sodipodi:type="arc"
       style="fill:none;stroke:#000000;stroke-width:2;stroke-linejoin:miter;stroke-miterlimit:4;stroke-opacity:1;stroke-dasharray:none;stroke-dashoffset:0"
       id="path9058"
       sodipodi:cx="110"
       sodipodi:cy="372.36218"
       sodipodi:rx="20"
       sodipodi:ry="20"
       d="m 130,372.36218 a 20,20 0 1 1 -40,0 20,20 0 1 1 40,0 z"
       transform="translate(580,-60)" />
    <path
       transform="translate(580,0)"
       d="m 130,372.36218 a 20,20 0 1 1 -40,0 20,20 0 1 1 40,0 z"
       sodipodi:ry="20"
       sodipodi:rx="20"
       sodipodi:cy="372.36218"
       sodipodi:cx="110"
       id="path9060"
       style="fill:none;stroke:#000000;stroke-width:2;stroke-linejoin:miter;stroke-miterlimit:4;stroke-opacity:1;stroke-dasharray:none;stroke-dashoffset:0"
       sodipodi:type="arc" />
    <path
       d="m 130,372.36218 a 20,20 0 1 1 -40,0 20,20 0 1 1 40,0 z"
       sodipodi:ry="20"
       sodipodi:rx="20"
       sodipodi:cy="372.36218"
       sodipodi:cx="110"
       id="path9062"
       style="fill:none;stroke:#000000;stroke-width:2;stroke-linejoin:miter;stroke-miterlimit:4;stroke-opacity:1;stroke-dasharray:none;stroke-dashoffset:0"
       sodipodi:type="arc"
       transform="translate(580,60)" />
    <path
       transform="translate(580,120)"
       sodipodi:type="arc"
       style="fill:none;stroke:#000000;stroke-width:2;stroke-linejoin:miter;stroke-miterlimit:4;stroke-opacity:1;stroke-dasharray:none;stroke-dashoffset:0"
       id="path9064"
       sodipodi:cx="110"
       sodipodi:cy="372.36218"
       sodipodi:rx="20"
       sodipodi:ry="20"
       d="m 130,372.36218 a 20,20 0 1 1 -40,0 20,20 0 1 1 40,0 z" />
    <path
       transform="translate(640,-60)"
       d="m 130,372.36218 a 20,20 0 1 1 -40,0 20,20 0 1 1 40,0 z"
       sodipodi:ry="20"
       sodipodi:rx="20"
       sodipodi:cy="372.36218"
       sodipodi:cx="110"
       id="path9066"
       style="fill:none;stroke:#000000;stroke-width:2;stroke-linejoin:miter;stroke-miterlimit:4;stroke-opacity:1;stroke-dasharray:none;stroke-dashoffset:0"
       sodipodi:type="arc" />
    <path
       sodipodi:type="arc"
       style="fill:none;stroke:#000000;stroke-width:2;stroke-linejoin:miter;stroke-miterlimit:4;stroke-opacity:1;stroke-dasharray:none;stroke-dashoffset:0"
       id="path9068"
       sodipodi:cx="110"
       sodipodi:cy="372.36218"
       sodipodi:rx="20"
       sodipodi:ry="20"
       d="m 130,372.36218 a 20,20 0 1 1 -40,0 20,20 0 1 1 40,0 z"
       transform="translate(640,0)" />
    <path
       transform="translate(640,60)"
       sodipodi:type="arc"
       style="fill:none;stroke:#000000;stroke-width:2;stroke-linejoin:miter;stroke-miterlimit:4;stroke-opacity:1;stroke-dasharray:none;stroke-dashoffset:0"
       id="path9070"
       sodipodi:cx="110"
       sodipodi:cy="372.36218"
       sodipodi:rx="20"
       sodipodi:ry="20"
       d="m 130,372.36218 a 20,20 0 1 1 -40,0 20,20 0 1 1 40,0 z" />
    <path
       d="m 130,372.36218 a 20,20 0 1 1 -40,0 20,20 0 1 1 40,0 z"
       sodipodi:ry="20"
       sodipodi:rx="20"
       sodipodi:cy="372.36218"
       sodipodi:cx="110"
       id="path9072"
       style="fill:none;stroke:#000000;stroke-width:2;stroke-linejoin:miter;stroke-miterlimit:4;stroke-opacity:1;stroke-dasharray:none;stroke-dashoffset:0"
       sodipodi:type="arc"
       transform="translate(640,120)" />
    <path
       transform="translate(700,-60)"
       d="m 130,372.36218 a 20,20 0 1 1 -40,0 20,20 0 1 1 40,0 z"
       sodipodi:ry="20"
       sodipodi:rx="20"
       sodipodi:cy="372.36218"
       sodipodi:cx="110"
       id="path9074"
       style="fill:none;stroke:#000000;stroke-width:2;stroke-linejoin:miter;stroke-miterlimit:4;stroke-opacity:1;stroke-dasharray:none;stroke-dashoffset:0"
       sodipodi:type="arc" />
    <path
       sodipodi:type="arc"
       style="fill:none;stroke:#000000;stroke-width:2;stroke-linejoin:miter;stroke-miterlimit:4;stroke-opacity:1;stroke-dasharray:none;stroke-dashoffset:0"
       id="path9076"
       sodipodi:cx="110"
       sodipodi:cy="372.36218"
       sodipodi:rx="20"
       sodipodi:ry="20"
       d="m 130,372.36218 a 20,20 0 1 1 -40,0 20,20 0 1 1 40,0 z"
       transform="translate(700,0)" />
    <path
       sodipodi:type="arc"
       style="fill:none;stroke:#000000;stroke-width:2;stroke-linejoin:miter;stroke-miterlimit:4;stroke-opacity:1;stroke-dasharray:none;stroke-dashoffset:0"
       id="path9078"
       sodipodi:cx="110"
       sodipodi:cy="372.36218"
       sodipodi:rx="20"
       sodipodi:ry="20"
       d="m 130,372.36218 a 20,20 0 1 1 -40,0 20,20 0 1 1 40,0 z"
       transform="translate(760,-60)" />
    <path
       transform="translate(760,0)"
       d="m 130,372.36218 a 20,20 0 1 1 -40,0 20,20 0 1 1 40,0 z"
       sodipodi:ry="20"
       sodipodi:rx="20"
       sodipodi:cy="372.36218"
       sodipodi:cx="110"
       id="path9080"
       style="fill:none;stroke:#000000;stroke-width:2;stroke-linejoin:miter;stroke-miterlimit:4;stroke-opacity:1;stroke-dasharray:none;stroke-dashoffset:0"
       sodipodi:type="arc" />
    <path
       transform="translate(880,-60)"
       d="m 130,372.36218 a 20,20 0 1 1 -40,0 20,20 0 1 1 40,0 z"
       sodipodi:ry="20"
       sodipodi:rx="20"
       sodipodi:cy="372.36218"
       sodipodi:cx="110"
       id="path9098"
       style="fill:none;stroke:#000000;stroke-width:2;stroke-linejoin:miter;stroke-miterlimit:4;stroke-opacity:1;stroke-dasharray:none;stroke-dashoffset:0"
       sodipodi:type="arc" />
    <path
       sodipodi:type="arc"
       style="fill:none;stroke:#000000;stroke-width:2;stroke-linejoin:miter;stroke-miterlimit:4;stroke-opacity:1;stroke-dasharray:none;stroke-dashoffset:0"
       id="path9100"
       sodipodi:cx="110"
       sodipodi:cy="372.36218"
       sodipodi:rx="20"
       sodipodi:ry="20"
       d="m 130,372.36218 a 20,20 0 1 1 -40,0 20,20 0 1 1 40,0 z"
       transform="translate(880,0)" />
    <path
       transform="translate(880,60)"
       sodipodi:type="arc"
       style="fill:none;stroke:#000000;stroke-width:2;stroke-linejoin:miter;stroke-miterlimit:4;stroke-opacity:1;stroke-dasharray:none;stroke-dashoffset:0"
       id="path9102"
       sodipodi:cx="110"
       sodipodi:cy="372.36218"
       sodipodi:rx="20"
       sodipodi:ry="20"
       d="m 130,372.36218 a 20,20 0 1 1 -40,0 20,20 0 1 1 40,0 z" />
    <path
       d="m 130,372.36218 a 20,20 0 1 1 -40,0 20,20 0 1 1 40,0 z"
       sodipodi:ry="20"
       sodipodi:rx="20"
       sodipodi:cy="372.36218"
       sodipodi:cx="110"
       id="path9104"
       style="fill:none;stroke:#000000;stroke-width:2;stroke-linejoin:miter;stroke-miterlimit:4;stroke-opacity:1;stroke-dasharray:none;stroke-dashoffset:0"
       sodipodi:type="arc"
       transform="translate(880,120)" />
    <path
       sodipodi:type="arc"
       style="fill:none;stroke:#000000;stroke-width:2;stroke-linejoin:miter;stroke-miterlimit:4;stroke-opacity:1;stroke-dasharray:none;stroke-dashoffset:0"
       id="path9106"
       sodipodi:cx="110"
       sodipodi:cy="372.36218"
       sodipodi:rx="20"
       sodipodi:ry="20"
       d="m 130,372.36218 a 20,20 0 1 1 -40,0 20,20 0 1 1 40,0 z"
       transform="translate(940,-60)" />
    <path
       transform="translate(940,0)"
       d="m 130,372.36218 a 20,20 0 1 1 -40,0 20,20 0 1 1 40,0 z"
       sodipodi:ry="20"
       sodipodi:rx="20"
       sodipodi:cy="372.36218"
       sodipodi:cx="110"
       id="path9108"
       style="fill:none;stroke:#000000;stroke-width:2;stroke-linejoin:miter;stroke-miterlimit:4;stroke-opacity:1;stroke-dasharray:none;stroke-dashoffset:0"
       sodipodi:type="arc" />
    <path
       d="m 130,372.36218 a 20,20 0 1 1 -40,0 20,20 0 1 1 40,0 z"
       sodipodi:ry="20"
       sodipodi:rx="20"
       sodipodi:cy="372.36218"
       sodipodi:cx="110"
       id="path9110"
       style="fill:none;stroke:#000000;stroke-width:2;stroke-linejoin:miter;stroke-miterlimit:4;stroke-opacity:1;stroke-dasharray:none;stroke-dashoffset:0"
       sodipodi:type="arc"
       transform="translate(940,60)" />
    <path
       transform="translate(940,120)"
       sodipodi:type="arc"
       style="fill:none;stroke:#000000;stroke-width:2;stroke-linejoin:miter;stroke-miterlimit:4;stroke-opacity:1;stroke-dasharray:none;stroke-dashoffset:0"
       id="path9112"
       sodipodi:cx="110"
       sodipodi:cy="372.36218"
       sodipodi:rx="20"
       sodipodi:ry="20"
       d="m 130,372.36218 a 20,20 0 1 1 -40,0 20,20 0 1 1 40,0 z" />
    <path
       sodipodi:type="arc"
       style="fill:none;stroke:#000000;stroke-width:2;stroke-linejoin:miter;stroke-miterlimit:4;stroke-opacity:1;stroke-dasharray:none;stroke-dashoffset:0"
       id="path9114"
       sodipodi:cx="110"
       sodipodi:cy="372.36218"
       sodipodi:rx="20"
       sodipodi:ry="20"
       d="m 130,372.36218 a 20,20 0 1 1 -40,0 20,20 0 1 1 40,0 z"
       transform="translate(1000,-60)" />
    <path
       transform="translate(1000,0)"
       d="m 130,372.36218 a 20,20 0 1 1 -40,0 20,20 0 1 1 40,0 z"
       sodipodi:ry="20"
       sodipodi:rx="20"
       sodipodi:cy="372.36218"
       sodipodi:cx="110"
       id="path9116"
       style="fill:none;stroke:#000000;stroke-width:2;stroke-linejoin:miter;stroke-miterlimit:4;stroke-opacity:1;stroke-dasharray:none;stroke-dashoffset:0"
       sodipodi:type="arc" />
    <path
       transform="translate(1060,-60)"
       d="m 130,372.36218 a 20,20 0 1 1 -40,0 20,20 0 1 1 40,0 z"
       sodipodi:ry="20"
       sodipodi:rx="20"
       sodipodi:cy="372.36218"
       sodipodi:cx="110"
       id="path9118"
       style="fill:none;stroke:#000000;stroke-width:2;stroke-linejoin:miter;stroke-miterlimit:4;stroke-opacity:1;stroke-dasharray:none;stroke-dashoffset:0"
       sodipodi:type="arc" />
    <path
       sodipodi:type="arc"
       style="fill:none;stroke:#000000;stroke-width:2;stroke-linejoin:miter;stroke-miterlimit:4;stroke-opacity:1;stroke-dasharray:none;stroke-dashoffset:0"
       id="path9120"
       sodipodi:cx="110"
       sodipodi:cy="372.36218"
       sodipodi:rx="20"
       sodipodi:ry="20"
       d="m 130,372.36218 a 20,20 0 1 1 -40,0 20,20 0 1 1 40,0 z"
       transform="translate(1060,0)" />
    <path
       transform="translate(1000,60)"
       sodipodi:type="arc"
       style="fill:none;stroke:#000000;stroke-width:2;stroke-linejoin:miter;stroke-miterlimit:4;stroke-opacity:1;stroke-dasharray:none;stroke-dashoffset:0"
       id="path9122"
       sodipodi:cx="110"
       sodipodi:cy="372.36218"
       sodipodi:rx="20"
       sodipodi:ry="20"
       d="m 130,372.36218 a 20,20 0 1 1 -40,0 20,20 0 1 1 40,0 z" />
    <path
       d="m 130,372.36218 a 20,20 0 1 1 -40,0 20,20 0 1 1 40,0 z"
       sodipodi:ry="20"
       sodipodi:rx="20"
       sodipodi:cy="372.36218"
       sodipodi:cx="110"
       id="path9124"
       style="fill:none;stroke:#000000;stroke-width:2;stroke-linejoin:miter;stroke-miterlimit:4;stroke-opacity:1;stroke-dasharray:none;stroke-dashoffset:0"
       sodipodi:type="arc"
       transform="translate(1000,120)" />
    <path
       transform="translate(1060,60)"
       d="m 130,372.36218 a 20,20 0 1 1 -40,0 20,20 0 1 1 40,0 z"
       sodipodi:ry="20"
       sodipodi:rx="20"
       sodipodi:cy="372.36218"
       sodipodi:cx="110"
       id="path9126"
       style="fill:none;stroke:#000000;stroke-width:2;stroke-linejoin:miter;stroke-miterlimit:4;stroke-opacity:1;stroke-dasharray:none;stroke-dashoffset:0"
       sodipodi:type="arc" />
    <text
       xml:space="preserve"
       style="font-size:12px;font-style:normal;font-variant:normal;font-weight:bold;font-stretch:normal;text-align:center;line-height:125%;letter-spacing:0px;word-spacing:0px;text-anchor:middle;fill:#000000;fill-opacity:1;stroke:none;font-family:Bitstream Vera Sans;-inkscape-font-specification:Sans Bold"
       x="200.96719"
       y="543.4314"
       id="text9128"
       sodipodi:linespacing="125%"><tspan
         sodipodi:role="line"
         id="tspan9130"
         x="200.96719"
         y="543.4314"
         style="font-size:16px">level 1</tspan></text>
    <text
       sodipodi:linespacing="125%"
       id="text9132"
       y="543.4314"
       x="480.96719"
       style="font-size:12px;font-style:normal;font-variant:normal;font-weight:bold;font-stretch:normal;text-align:center;line-height:125%;letter-spacing:0px;word-spacing:0px;text-anchor:middle;fill:#000000;fill-opacity:1;stroke:none;font-family:Bitstream Vera Sans;-inkscape-font-specification:Sans Bold"
       xml:space="preserve"><tspan
         style="font-size:16px"
         y="543.4314"
         x="480.96719"
         id="tspan9134"
         sodipodi:role="line">level 2</tspan></text>
    <text
       xml:space="preserve"
       style="font-size:12px;font-style:normal;font-variant:normal;font-weight:bold;font-stretch:normal;text-align:center;line-height:125%;letter-spacing:0px;word-spacing:0px;text-anchor:middle;fill:#000000;fill-opacity:1;stroke:none;font-family:Bitstream Vera Sans;-inkscape-font-specification:Sans Bold"
       x="780.96716"
       y="543.4314"
       id="text9136"
       sodipodi:linespacing="125%"><tspan
         sodipodi:role="line"
         id="tspan9138"
         x="780.96716"
         y="543.4314"
         style="font-size:16px">level 3</tspan></text>
    <text
       sodipodi:linespacing="125%"
       id="text9140"
       y="543.4314"
       x="1080.9673"
       style="font-size:12px;font-style:normal;font-variant:normal;font-weight:bold;font-stretch:normal;text-align:center;line-height:125%;letter-spacing:0px;word-spacing:0px;text-anchor:middle;fill:#000000;fill-opacity:1;stroke:none;font-family:Bitstream Vera Sans;-inkscape-font-specification:Sans Bold"
       xml:space="preserve"><tspan
         style="font-size:16px"
         y="543.4314"
         x="1080.9673"
         id="tspan9142"
         sodipodi:role="line">level 4</tspan></text>
    <path
       sodipodi:nodetypes="cc"
       style="fill:none;stroke:#000000;stroke-width:2;stroke-linecap:butt;stroke-linejoin:miter;stroke-miterlimit:4;stroke-opacity:1;stroke-dasharray:none;marker-end:url(#Arrow2Mend)"
       d="m 230.07874,333.07084 0,17.71654"
       id="path3806"
       inkscape:connector-curvature="0" />
    <path
       inkscape:connector-curvature="0"
       id="path3808"
       d="m 290.07874,333.07084 0,17.71654"
       style="fill:none;stroke:#000000;stroke-width:2;stroke-linecap:butt;stroke-linejoin:miter;stroke-miterlimit:4;stroke-opacity:1;stroke-dasharray:none;marker-end:url(#Arrow2Mend)"
       sodipodi:nodetypes="cc" />
    <path
       sodipodi:nodetypes="cc"
       style="fill:none;stroke:#000000;stroke-width:2;stroke-linecap:butt;stroke-linejoin:miter;stroke-miterlimit:4;stroke-opacity:1;stroke-dasharray:none;marker-end:url(#Arrow2Mend)"
       d="m 170.07874,393.07084 0,17.71654"
       id="path3810"
       inkscape:connector-curvature="0" />
    <path
       inkscape:connector-curvature="0"
       id="path3812"
       d="m 230.07874,393.07084 0,17.71654"
       style="fill:none;stroke:#000000;stroke-width:2;stroke-linecap:butt;stroke-linejoin:miter;stroke-miterlimit:4;stroke-opacity:1;stroke-dasharray:none;marker-end:url(#Arrow2Mend)"
       sodipodi:nodetypes="cc" />
    <path
       sodipodi:nodetypes="cc"
       style="fill:none;stroke:#000000;stroke-width:2;stroke-linecap:butt;stroke-linejoin:miter;stroke-miterlimit:4;stroke-opacity:1;stroke-dasharray:none;marker-end:url(#Arrow2Mend)"
       d="m 290.07874,393.07084 0,17.71654"
       id="path3814"
       inkscape:connector-curvature="0" />
    <path
       inkscape:connector-curvature="0"
       id="path3816"
       d="m 170.07874,453.07084 0,17.71654"
       style="fill:none;stroke:#000000;stroke-width:2;stroke-linecap:butt;stroke-linejoin:miter;stroke-miterlimit:4;stroke-opacity:1;stroke-dasharray:none;marker-end:url(#Arrow2Mend)"
       sodipodi:nodetypes="cc" />
    <path
       sodipodi:nodetypes="cc"
       style="fill:none;stroke:#000000;stroke-width:2;stroke-linecap:butt;stroke-linejoin:miter;stroke-miterlimit:4;stroke-opacity:1;stroke-dasharray:none;marker-end:url(#Arrow2Mend)"
       d="m 230.07874,453.07084 0,17.71654"
       id="path3818"
       inkscape:connector-curvature="0" />
    <path
       inkscape:connector-curvature="0"
       id="path3820"
       d="m 290.07874,453.07084 0,17.71654"
       style="fill:none;stroke:#000000;stroke-width:2;stroke-linecap:butt;stroke-linejoin:miter;stroke-miterlimit:4;stroke-opacity:1;stroke-dasharray:none;marker-end:url(#Arrow2Mend)"
       sodipodi:nodetypes="cc" />
    <path
       sodipodi:nodetypes="cc"
       style="fill:none;stroke:#000000;stroke-width:2;stroke-linecap:butt;stroke-linejoin:miter;stroke-miterlimit:4;stroke-opacity:1;stroke-dasharray:none;marker-end:url(#Arrow2Mend)"
       d="m 510.07874,393.07084 0,17.71654"
       id="path3822"
       inkscape:connector-curvature="0" />
    <path
       inkscape:connector-curvature="0"
       id="path3824"
       d="m 570.07874,393.07084 0,17.71654"
       style="fill:none;stroke:#000000;stroke-width:2;stroke-linecap:butt;stroke-linejoin:miter;stroke-miterlimit:4;stroke-opacity:1;stroke-dasharray:none;marker-end:url(#Arrow2Mend)"
       sodipodi:nodetypes="cc" />
    <path
       inkscape:connector-curvature="0"
       id="path3826"
       d="m 510.07874,453.07084 0,17.71654"
       style="fill:none;stroke:#000000;stroke-width:2;stroke-linecap:butt;stroke-linejoin:miter;stroke-miterlimit:4;stroke-opacity:1;stroke-dasharray:none;marker-end:url(#Arrow2Mend)"
       sodipodi:nodetypes="cc" />
    <path
       sodipodi:nodetypes="cc"
       style="fill:none;stroke:#000000;stroke-width:2;stroke-linecap:butt;stroke-linejoin:miter;stroke-miterlimit:4;stroke-opacity:1;stroke-dasharray:none;marker-end:url(#Arrow2Mend)"
       d="m 570.07874,453.07084 0,17.71654"
       id="path3828"
       inkscape:connector-curvature="0" />
  </g>
</svg>
